<svg xmlns="http://www.w3.org/2000/svg" xmlns:xlink="http://www.w3.org/1999/xlink" width="494" height="2774" viewBox="0 0 494 2774">
  <defs>
    <linearGradient id="linear-gradient" x1="0.5" x2="0.5" y2="1" gradientUnits="objectBoundingBox">
      <stop offset="0" stop-color="#e887a3"/>
      <stop offset="1" stop-color="#b3aac7"/>
    </linearGradient>
    <linearGradient id="linear-gradient-2" x1="0.965" y1="0.017" x2="0.023" y2="0.98" xlink:href="#linear-gradient"/>
    <linearGradient id="linear-gradient-3" x1="0.135" y1="0.05" x2="0.881" y2="0.901" xlink:href="#linear-gradient"/>
    <linearGradient id="linear-gradient-4" x1="0.965" y1="0.017" x2="0.023" y2="0.98" gradientUnits="objectBoundingBox">
      <stop offset="0" stop-color="#80a7d5"/>
      <stop offset="1" stop-color="#c3aac7"/>
    </linearGradient>
    <linearGradient id="linear-gradient-5" x1="0.135" y1="0.05" x2="0.881" y2="0.901" xlink:href="#linear-gradient-4"/>
    <linearGradient id="linear-gradient-6" x1="0.775" y1="1" x2="0.203" y2="0" xlink:href="#linear-gradient"/>
  </defs>
  <g id="Group_90" data-name="Group 90" transform="translate(306 5268)">
    <rect id="Rectangle_29" data-name="Rectangle 29" width="494" height="2774" transform="translate(-306 -5268)" fill="#fff"/>
    <path id="Intersection_1" data-name="Intersection 1" d="M348,242A114.092,114.092,0,0,1,494,132.552v218.9A114.092,114.092,0,0,1,348,242Z" transform="translate(-306 -5326)" fill="url(#linear-gradient)"/>
    <g id="Group_84" data-name="Group 84" transform="translate(-516.393 -1916)">
      <path id="Path_48" data-name="Path 48" d="M671.859,1086.03s150.934,30.665,258.33-14.784c146.457-61.981,235.67-40.083,235.67-40.083V1828.87s-99.463-67.68-216.746,49.3-277.254,98.416-277.254,98.416Z" transform="translate(-461.466 -4014.588)" opacity="0.346" fill="url(#linear-gradient-2)"/>
      <path id="Path_47" data-name="Path 47" d="M1165.858,1104.852s-150.934,40.511-258.33-19.531c-146.458-81.881-235.67-52.953-235.67-52.953v859.448s124.72-56.068,235.67,8.041,258.33,47.184,258.33,47.184Z" transform="translate(-461.465 -4043.814)" fill="url(#linear-gradient-3)"/>
    </g>
    <g id="Group_85" data-name="Group 85" transform="translate(-516.393 -527)">
      <path id="Path_48-2" data-name="Path 48" d="M671.859,1031.167s148.019-67.352,264.864,0c143.261,82.578,229.136,83.9,229.136,83.9v714.594S1066.4,1761.911,949.113,1879s-277.254,98.513-277.254,98.513Z" transform="translate(-461.466 -4014.588)" opacity="0.346" fill="url(#linear-gradient-4)"/>
      <path id="Path_47-2" data-name="Path 47" d="M1166.329,1026.145s-159.039-77.209-273.981,37.364c-57.587,57.4-220.018,42.406-220.018,42.406v780.427s124.367-53.083,235.423,10.829,258.577,47.039,258.577,47.039Z" transform="translate(-461.936 -4043.814)" fill="url(#linear-gradient-5)"/>
    </g>
    <circle id="Ellipse_14" data-name="Ellipse 14" cx="69.5" cy="69.5" r="69.5" transform="translate(-198 -3753)" fill="url(#linear-gradient-6)"/>
  </g>
</svg>
